<svg width="640" height="1280" xmlns="http://www.w3.org/2000/svg" preserveAspectRatio="xMidYMid meet" version="1.0">
 <metadata>Created by potrace 1.15, written by Peter Selinger 2001-2017</metadata>

 <g>
  <title>Layer 1</title>
  <g id="svg_1" fill="#000000" transform="translate(0.000000,1280.000000) scale(0.100000,-0.100000)">
   <path fill="#534a4a" id="svg_2" d="m5525,12761c-98,-51 -294,-197 -724,-540c-460,-367 -686,-604 -736,-776c-30,-106 -15,-316 51,-675c14,-74 27,-144 30,-155c4,-17 3,-17 -5,-4c-21,32 -70,233 -96,386c-42,253 -77,238 -56,-24c16,-192 44,-356 102,-582c27,-106 48,-196 45,-198c-8,-8 -162,313 -199,415c-79,220 -107,373 -116,628c-6,183 -12,211 -43,199c-48,-19 -152,-333 -282,-850c-99,-398 -106,-437 -91,-535c16,-108 58,-281 84,-350c37,-98 14,-62 -34,52c-80,192 -118,269 -129,265c-6,-2 -14,-28 -17,-58c-6,-57 -22,-93 -76,-174c-41,-62 -73,-152 -73,-203c0,-59 35,-182 84,-299c25,-58 42,-102 38,-99c-3,4 -43,77 -89,164c-89,169 -100,171 -57,7c3,-11 -19,27 -48,85c-40,79 -58,106 -75,108c-18,3 -22,-3 -28,-40c-13,-76 -36,-131 -88,-211c-41,-63 -51,-89 -55,-132c-6,-79 35,-196 149,-425c54,-107 90,-185 81,-172c-9,12 -60,106 -112,208c-52,103 -100,187 -105,188c-6,0 -13,-37 -16,-84c-6,-92 -33,-178 -148,-471c-76,-195 -95,-268 -88,-335c10,-100 116,-287 282,-499c71,-91 74,-96 30,-56c-78,72 -140,144 -248,290c-56,76 -112,151 -124,167l-22,29l15,-55c20,-68 54,-151 105,-252c22,-43 37,-78 34,-78c-2,0 -43,76 -89,168c-117,232 -139,247 -169,123c-9,-40 -37,-118 -61,-174c-56,-127 -70,-183 -64,-251c8,-96 105,-270 271,-485c89,-115 68,-113 -41,3c-80,85 -132,164 -209,311c-44,84 -61,109 -57,85c44,-257 92,-395 198,-560c61,-95 63,-100 12,-45c-83,90 -153,178 -219,276l-65,96l-5,-51c-3,-28 -13,-71 -22,-96c-9,-25 -19,-54 -21,-65c-7,-26 78,-161 230,-368c209,-284 211,-286 167,-272c-73,23 -255,273 -404,553l-54,103l-7,-65c-9,-92 -51,-251 -77,-292c-12,-19 -50,-71 -85,-115c-153,-193 -196,-380 -134,-590c27,-90 114,-267 181,-368c27,-41 48,-76 46,-78c-13,-12 -138,191 -238,387c-61,118 -73,114 -77,-23c-2,-98 0,-115 28,-195c19,-55 34,-123 41,-187c5,-55 17,-124 25,-154c21,-72 80,-188 147,-289c62,-93 48,-92 -40,1c-109,117 -222,309 -269,457c-9,30 -20,59 -24,63c-4,4 -10,-38 -13,-95c-9,-137 -33,-269 -63,-344c-13,-33 -24,-70 -24,-81c0,-11 43,-77 95,-148c52,-70 125,-175 161,-234c37,-58 74,-117 83,-131c20,-31 -156,122 -222,193c-26,29 -82,98 -123,154c-42,57 -77,103 -78,103c-1,0 -1,-39 1,-86c3,-61 10,-98 24,-128c12,-24 92,-111 193,-211c173,-171 235,-247 299,-366c55,-100 54,-121 -1,-43c-60,85 -121,140 -262,237c-57,40 -151,116 -207,171l-103,99l0,-79c0,-122 -28,-207 -91,-279c-38,-43 -34,-61 29,-112c26,-21 124,-114 217,-208c157,-157 372,-361 538,-511l67,-61l-13,-39c-8,-22 -42,-143 -77,-271c-72,-265 -54,-243 -199,-243c-207,-1 -523,-54 -639,-107c-78,-36 -75,-23 -73,-296l1,-187l43,-31l43,-30l58,-200c32,-110 57,-201 55,-203c-22,-17 -340,-175 -486,-242c-328,-150 -343,-157 -343,-165c0,-17 152,-445 215,-604c118,-300 118,-301 100,-329c-13,-20 -15,-44 -9,-155l7,-130l31,-10c182,-58 897,-121 1366,-121c475,0 1120,63 1152,112c4,7 8,72 8,144c0,117 -2,133 -19,148c-19,18 -18,24 93,350c63,182 136,395 164,473l49,143l-291,148c-223,113 -496,248 -523,257c-1,0 4,19 11,40c8,22 30,111 50,197c33,141 40,160 70,190l34,34l7,193c8,219 7,224 -71,268c-94,54 -432,113 -646,113c-43,0 -78,3 -78,7c0,4 25,103 57,220l56,213l66,0c62,0 168,22 235,49c17,7 140,61 275,120c363,160 536,213 698,215c41,1 71,5 70,10c-2,6 -32,26 -68,45c-62,35 -67,36 -164,35c-134,-2 -261,-40 -461,-141c-83,-41 -157,-74 -164,-71c-14,4 165,140 229,172c90,46 233,81 406,101l61,6l29,112c46,181 100,337 159,464c64,139 98,224 93,230c-8,8 -115,-38 -183,-79c-38,-23 -101,-52 -140,-64c-90,-29 -258,-47 -343,-38l-66,7l110,23c134,29 222,54 340,99c93,36 245,119 245,134c0,5 -35,-6 -77,-24c-99,-43 -213,-72 -329,-86c-130,-15 -139,-9 -43,30c135,54 348,166 429,224c48,35 101,87 146,143c71,89 134,176 134,188c0,3 -22,-10 -49,-29c-66,-48 -146,-83 -228,-100c-141,-30 -137,-19 24,60c121,60 164,87 211,133c74,71 90,113 132,338c23,129 39,187 65,243c19,40 35,75 35,77c0,18 -55,-7 -142,-64c-155,-102 -182,-113 -43,-17c83,57 180,148 202,189c20,39 25,54 83,288c55,217 94,333 140,414c33,58 38,84 16,84c-7,0 -101,-42 -207,-94c-198,-96 -283,-130 -354,-140l-40,-6l50,22c28,12 110,52 182,89c264,135 396,240 477,379c35,59 113,238 131,300c4,14 27,69 52,122c24,54 41,103 38,109c-4,6 -18,8 -31,5c-22,-6 -20,-2 15,33c89,89 164,224 206,371c14,52 38,121 51,153c14,33 23,61 20,64c-3,3 -18,-10 -33,-28c-15,-19 -52,-59 -82,-89l-53,-55l49,60c28,33 64,80 80,105c33,49 283,553 283,570c0,22 -39,7 -120,-47c-107,-71 -261,-163 -274,-163c-6,0 29,24 77,53c124,74 229,158 291,232c59,73 141,224 178,330c34,96 82,309 75,329c-8,20 -49,21 -87,1c-37,-19 -39,-7 -4,26c62,58 141,199 235,419c75,178 69,182 -91,66c-123,-89 -124,-89 -30,10c93,96 226,286 215,305c-5,7 -39,-20 -94,-74c-84,-84 -239,-203 -249,-192c-3,3 26,38 65,78c290,301 443,606 443,886l0,104l-51,-104c-46,-94 -125,-216 -134,-207c-2,2 16,65 40,140c116,361 141,624 115,1203c-17,353 -48,514 -117,595c-71,82 -125,89 -238,31zm-2144,-3916l10,-20l-16,20c-9,11 -21,29 -26,40l-10,20l16,-20c9,-11 21,-29 26,-40zm-642,-1320c24,-40 31,-57 17,-40c-25,29 -88,140 -69,120c5,-5 29,-41 52,-80zm1171,-1800c0,-2 -10,-9 -22,-15c-22,-11 -22,-10 -4,4c21,17 26,19 26,11zm-50,-30c0,-2 -13,-11 -30,-20c-38,-19 -40,-11 -2,9c31,17 32,18 32,11z"/>
  </g>
 </g>
</svg>